<?xml version="1.0" standalone="no"?>
<!DOCTYPE svg PUBLIC "-//W3C//DTD SVG 20010904//EN"
 "http://www.w3.org/TR/2001/REC-SVG-20010904/DTD/svg10.dtd">
<svg version="1.0" xmlns="http://www.w3.org/2000/svg"
 width="269.000000pt" height="259.000000pt" viewBox="0 0 269.000000 259.000000"
 preserveAspectRatio="xMidYMid meet">

<g transform="translate(0.000000,259.000000) scale(0.100000,-0.100000)"
fill="#000000" stroke="none">
<path d="M521 2321 c-23 -22 -92 -76 -154 -120 -188 -133 -252 -221 -264 -359
-5 -59 -2 -82 17 -134 36 -101 53 -112 71 -45 17 64 74 173 135 260 80 113
102 101 39 -22 -29 -58 -62 -151 -116 -327 -5 -17 -9 -42 -9 -56 0 -41 -22
-55 -98 -62 -38 -4 -78 -13 -87 -20 -20 -15 -21 -13 60 -58 17 -9 31 -26 33
-38 2 -11 -29 -85 -68 -165 -39 -79 -74 -159 -77 -179 -9 -54 26 -133 157
-356 37 -63 87 -148 110 -188 23 -41 44 -71 47 -69 3 3 6 27 8 54 6 77 36 148
137 318 141 239 162 277 174 310 14 40 32 42 103 10 33 -15 64 -24 70 -21 13
8 -8 59 -61 145 -22 36 -70 122 -106 191 -36 69 -70 128 -76 133 -14 9 -87 0
-191 -23 -87 -20 -105 -16 -105 27 0 29 31 59 128 127 101 70 173 173 212 304
43 146 20 402 -37 402 -6 0 -30 -18 -52 -39z"/>
<path d="M1598 783 c-8 -10 -36 -56 -63 -103 -26 -47 -72 -122 -102 -167 -29
-46 -53 -87 -53 -92 0 -16 54 -107 172 -288 21 -32 46 -75 55 -95 10 -21 21
-38 24 -38 4 0 10 35 14 77 4 43 12 84 17 90 8 10 67 13 232 13 254 0 324 9
380 51 33 24 116 136 116 155 0 4 29 55 65 114 36 59 65 113 65 119 0 6 4 11
8 11 7 0 42 62 42 75 0 2 -23 -8 -52 -23 l-52 -27 -397 0 c-439 0 -429 -1
-429 64 0 43 -9 81 -20 81 -4 0 -14 -8 -22 -17z"/>
<path d="M528 701 c-13 -11 -48 -65 -77 -121 -64 -124 -75 -190 -44 -261 32
-71 76 -115 130 -128 56 -15 304 -20 533 -12 l165 6 6 250 c5 239 5 251 -14
268 -17 15 -49 17 -347 17 -308 0 -329 -1 -352 -19z"/>
</g>
</svg>
